<svg height="184.556591" viewBox="0 0 60.487615 20.575433" width="541.839223" xmlns="http://www.w3.org/2000/svg" xmlns:xlink="http://www.w3.org/1999/xlink"><symbol id="a" overflow="visible"/><symbol id="b" overflow="visible"/><g transform="translate(440.29107 557.49417)"><use height="100%" transform="matrix(.3527778 0 0 .3527778 99.5353 139.75266)" width="100%" x="186.99159" xlink:href="#a" y="49.888199"/><use fill="#fff" height="100%" transform="matrix(.3527778 0 0 .3527778 99.5353 139.75266)" width="100%" x="181.7433" xlink:href="#b" y="384.35489"/><g fill="#590f17"><path d="m-410.48272-544.84108c-.20809 0-.3707-.0634-.48232-.1888-.18052-.20119-.1502-.48369-.1502-.49609v-9.37066c.008-.0841.008-.1819-.0386-.23289-.0303-.0331-.0827-.0496-.1571-.0496-.17225 0-.37069.0896-.37344.091-2.57142.7593-3.2508 2.35645-3.25768 2.37298-1.26504 2.9559 1.04868 4.54202 1.07211 4.55855.45751.30042.46302.66422.46302.67938v1.21956c-.0248.42857-.28663.47405-.39826.47405-.19292 0-.38309-.11989-.40376-.1323-4.91546-2.90352-2.67477-7.56543-2.65134-7.61228 2.01606-3.55809 5.93796-3.8337 7.09138-3.8337.15572 0 .24253.005.24253.005.14746.0124.26045.0689.34176.16399.12816.15572.11438.35415.11162.3762l.001 9.4065c-.007.13642.0152.23013.0661.28249.0414.0441.10611.0661.19569.0661.13918 0 .27698-.0565.27836-.0565 3.05925-.59531 3.64629-3.0055 3.6518-3.03031.77859-2.36609-1.75424-4.18786-1.77905-4.20577l-.0537-.0372v-1.75837c.0675-.30868.24391-.35003.34313-.35003.17915 0 .35002.13781.36931.15296 5.00366 3.13091 2.8305 7.4924 2.80845 7.5365-1.6564 3.77582-6.11711 3.96737-6.99493 3.96737-.12953 0-.20119-.004-.20119-.004-.022.004-.0579.005-.0951.005"/><path d="m-407.40005-554.7106c-.0496 0-.0992-.008-.15021-.0248l-.70004-.22186c-.21636-.0717-.38034-.27561-.37621-.46578l.001-1.4745c.004-.21911.22462-.34589.4644-.26596l.70005.22186c.21497.0717.38033.27561.3762.46578l-.001 1.47588c-.004.17088-.13367.28939-.3142.28939"/><path d="m-411.75465-545.00094c-.0482 0-.0978-.008-.14883-.0248l-.70005-.22186c-.21497-.0717-.38033-.27699-.37482-.46716v-1.4745c.005-.21911.226-.34451.46577-.26596l.69867.22186c.21635.0717.38034.27699.37621.46578v1.47588c-.004.17225-.13505.29076-.31695.29076"/><path d="m-437.74583-538.70055-.60772-1.36701-.56499 1.36701zm1.27882 1.5999h-.5526l-.50436-1.11345h-1.60541l-.47543 1.11345h-.55397l1.62195-3.79787h.38172zm0 0"/><path d="m-432.42936-537.10065h-.4644l-2.52457-2.90628v2.90628h-.50849v-3.77444h.43683l2.54524 2.92695v-2.92695h.51539zm0 0"/><path d="m-429.51481-538.70055-.60909-1.36701-.565 1.36701zm1.27744 1.5999h-.55259l-.50437-1.11345h-1.60403l-.4768 1.11345h-.5526l1.62058-3.79787h.38171zm0 0"/><path d="m-427.17077-540.39416v2.80569h.69729c.2825 0 .72485-.022 1.04593-.21498.38172-.2384.62977-.69728.62977-1.21267 0-.45889-.20947-.98529-.78549-1.23885-.31006-.13919-.56361-.13919-.90675-.13919zm.73587-.48093c.35416 0 .96876 0 1.47175.38723.4203.32108.72485.85162.72485 1.4993 0 .95774-.67524 1.46072-.90675 1.60542-.46027.28249-.97979.28249-1.36702.28249h-1.19613v-3.77444zm0 0"/><path d="m-423.06146-538.97753c0 .85851.67524 1.42213 1.46623 1.42213.40377 0 .84061-.16536 1.10106-.44786.2384-.26045.37758-.66973.37758-.99632 0-.62425-.4768-1.41663-1.4621-1.41663-1.05695 0-1.48277.80891-1.48277 1.43868m3.49746-.0166c0 1.08452-.82958 1.94304-2.0643 1.94304-1.18373 0-1.99264-.87506-1.99264-1.9265 0-1.00046.73036-1.94717 2.0202-1.94717 1.25678 0 2.03674.91777 2.03674 1.93063"/><path d="m-418.24935-537.59398h1.69912v.49196h-2.24758v-3.77307h.54846zm0 0"/><path d="m-412.8061-538.73362c0 .36518 0 .89021-.42581 1.27193-.33762.29903-.75792.41066-1.18925.41066-.53192 0-1.11759-.18328-1.41662-.66009-.21084-.33073-.21084-.76756-.21084-1.0225v-2.14147h.54295v2.14147c0 .49747.0441.69177.2384.88608.15985.16536.40928.31419.84611.31419.60909 0 .87368-.31419.97428-.49747.0717-.13229.10473-.33211.10473-.7028v-2.14147h.53605zm0 0"/><path d="m-407.13134-538.73362c0 .36518 0 .89021-.42581 1.27193-.33762.29903-.75792.41066-1.18924.41066-.53193 0-1.11759-.18328-1.41663-.66009-.21084-.33073-.21084-.76756-.21084-1.0225v-2.14147h.54295v2.14147c0 .49747.0441.69177.2384.88608.15985.16536.40927.31419.84612.31419.60909 0 .87367-.31419.97427-.49747.0716-.13229.10473-.33211.10473-.7028v-2.14147h.53605zm0 0"/><path d="m-402.75607-537.10065h-.46439l-2.52319-2.90628v2.90628h-.50988v-3.77444h.43822l2.54524 2.92695v-2.92695h.514zm0 0"/><path d="m-401.29121-537.10202h-.54295v-3.77307h.54295zm0 0"/><path d="m-399.01193-537.0786h-.12265l-1.62609-3.79649h.54157l1.13551 2.64996 1.12861-2.64996h.53606zm0 0"/><path d="m-394.75242-540.39416h-1.5999v1.15204h1.5434v.48094h-1.5434v1.17271h1.64951v.48782h-2.19108v-3.77444h2.14147zm0 0"/><path d="m-393.34957-540.41621v1.19063h.21083c.0827 0 .37621 0 .52504-.0565.25493-.0992.36104-.33624.36104-.54157 0-.21635-.11162-.4203-.28801-.50298-.13918-.0675-.31557-.0896-.64216-.0896zm.41065-.45888c.17639 0 .40928.0165.6463.12126.40514.17226.59256.54846.59256.93018 0 .43684-.22187.76895-.62977.9288.34176.22738.5526.57602.8406 1.0418.15986.25907.25356.38723.51402.75103h-.64217c-.12678-.1819-.65181-1.00597-.77446-1.1672-.37069-.47542-.55259-.47542-.81304-.47542h-.14469v1.64262h-.53606v-3.77307zm0 0"/><path d="m-388.65873-540.04551c-.31971-.31006-.62976-.39275-.8847-.39275-.3707 0-.59807.19982-.59807.43685 0 .32108.22186.45475.9412.87505.15985.0937.34313.22738.48782.4203.11576.15021.20395.35416.20395.62563 0 .59256-.42581 1.0294-1.09554 1.0294-.37069 0-.72484-.12816-1.01837-.34865v-.68626c.11025.1378.44787.55259 1.01837.55259.2825 0 .58567-.17639.58567-.49747 0-.31557-.32109-.54846-.49747-.65319-.59807-.35967-.76895-.4644-.93569-.67524-.11575-.1502-.18741-.32659-.18741-.56362 0-.57051.43132-1.00183 1.11207-1.00183.31006 0 .6091.0937.86817.26596zm0 0"/><path d="m-387.26002-537.10202h-.54157v-3.77307h.54157zm0 0"/><path d="m-383.48144-540.39967h-1.31603v3.29902h-.54295v-3.29902h-1.29398v-.47542h3.15296zm0 0"/><path d="m-381.33033-539.0988v1.99815h-.55259v-1.99815l-1.39457-1.77629h.65319l1.01285 1.30087 1.02389-1.30087h.65181zm0 0"/></g></g></svg>