<?xml version="1.0" encoding="UTF-8"?>
<svg id="Layer_2" data-name="Layer 2" xmlns="http://www.w3.org/2000/svg" width="59.18mm" height="38.75mm" viewBox="0 0 167.76 109.83">
  <defs>
    <style>
      .cls-1 {
        fill: #fff;
      }

      .cls-2, .cls-3 {
        fill: #1ecad3;
      }

      .cls-3 {
        opacity: .65;
      }

      .cls-4 {
        fill: #003a70;
      }
    </style>
  </defs>
  <g id="LOGOTYPE_TURK_medium_YATAY_YAZI" data-name="LOGOTYPE TURK medium YATAY YAZI">
    <g>
      <g>
        <path class="cls-1" d="m73.83,40.33c.84,1.87.51,3.34-.1,4.39,1.85-1.99,3.12-4.48,1.92-7.15-.99-2.21-4.04-5.34-7.57-8.47l-9.04-2.11s12.92,9.17,14.8,13.34Z"/>
        <path class="cls-3" d="m73.83,40.33c.84,1.87.51,3.34-.1,4.39,1.85-1.99,3.12-4.48,1.92-7.15-.99-2.21-4.04-5.34-7.57-8.47l-9.04-2.11s12.92,9.17,14.8,13.34Z"/>
        <path class="cls-2" d="m78.91,37.57c2.82,6.27-5.77,10.91-5.77,10.91,6.05-2.74,14.92-7.97,11.7-15.13-1.38-3.06-5.14-7.2-9.76-11.52l-18.37-4.28s19.38,13.75,22.2,20.01Z"/>
        <path class="cls-4" d="m52.31,0s32.29,22.91,36.99,33.36c4.7,10.44-16.86,17.31-16.86,17.31l29.14-3.64s18.34-2.4,11.6-14.5c-6.75-12.1-27.29-24.71-27.29-24.71L52.31,0Z"/>
      </g>
      <g>
        <g>
          <polygon class="cls-4" points="66.05 108.36 66.05 95.49 74.79 95.49 74.79 94.13 64.51 94.13 64.51 109.72 74.99 109.72 74.99 108.36 66.05 108.36"/>
          <rect class="cls-4" x="68" y="101.12" width="5.67" height="1.3"/>
        </g>
        <g>
          <polygon class="cls-4" points="136.8 108.36 136.8 95.49 145.54 95.49 145.54 94.13 135.26 94.13 135.26 109.72 145.74 109.72 145.74 108.36 136.8 108.36"/>
          <rect class="cls-4" x="138.74" y="101.12" width="5.68" height="1.3"/>
        </g>
        <g>
          <polygon class="cls-4" points="125.2 94.13 118.11 94.13 118.11 95.49 123.67 95.49 123.67 109.72 125.2 109.72 125.2 94.13"/>
          <rect class="cls-4" x="126.71" y="94.13" width="4.05" height="1.36"/>
        </g>
        <path class="cls-4" d="m87.79,103.71c.7-.15,1.31-.45,1.83-.9.52-.45.92-1.01,1.21-1.67.29-.66.43-1.36.43-2.11,0-.6-.11-1.19-.34-1.77-.23-.58-.55-1.11-.97-1.58-.42-.48-.9-.85-1.46-1.13-.56-.28-1.17-.42-1.85-.42h-6.59v15.59h1.54v-14.23h4.96c.59,0,1.12.16,1.59.49s.86.76,1.14,1.3.43,1.12.43,1.75-.12,1.2-.37,1.75c-.25.55-.6.99-1.05,1.33-.45.34-.99.51-1.6.51h-1.4l-1.11,1.36h2.03l3.67,5.75h1.73l-3.82-6.02Z"/>
        <g>
          <rect class="cls-4" x="9.95" y="91.1" width="1.27" height="1.83"/>
          <rect class="cls-4" x="5.35" y="91.1" width="1.27" height="1.83"/>
          <path class="cls-4" d="m13.31,94.13v7.86c0,.79-.08,1.57-.24,2.34-.16.77-.43,1.46-.8,2.08-.37.61-.89,1.11-1.54,1.48s-1.48.56-2.47.56-1.77-.18-2.42-.54c-.64-.36-1.16-.85-1.54-1.46-.38-.61-.66-1.31-.82-2.09s-.25-1.57-.25-2.37v-7.86h-1.51s-1.71,0-1.71,0l1.71,2.09v5.77c0,1,.11,1.96.34,2.9.23.94.59,1.78,1.09,2.51.5.74,1.17,1.33,2.02,1.77.85.44,1.89.66,3.12.66s2.22-.21,3.05-.64c.84-.42,1.51-1,2.03-1.71.52-.72.9-1.55,1.13-2.5.23-.95.35-1.95.35-2.99v-7.86h-1.54Z"/>
        </g>
        <g>
          <path class="cls-4" d="m22.22,96.97v12.76h-1.54v-15.59h1.27l10.23,13v-12.98h1.54v15.57h-1.43l-10.08-12.76Z"/>
          <path class="cls-4" d="m39.81,109.72v-15.59h1.54v15.59h-1.54Zm.09-16.89v-1.7h1.36v1.7h-1.36Z"/>
          <path class="cls-4" d="m47.36,94.13l5.58,13.68,5.56-13.68h1.6l-6.46,15.59h-1.41l-6.48-15.59h1.6Z"/>
          <path class="cls-4" d="m105.68,97.05c-.22-.25-.48-.47-.77-.67-.29-.2-.62-.37-.99-.52-.37-.15-.76-.26-1.18-.35s-.86-.13-1.33-.13c-1.36,0-2.36.26-3,.78-.64.52-.96,1.22-.96,2.12,0,.61.15,1.1.45,1.45.3.35.77.64,1.42.86.64.22,1.46.45,2.46.68,1.11.23,2.07.51,2.88.83.8.32,1.43.76,1.87,1.3.44.55.66,1.29.66,2.23,0,.72-.14,1.34-.42,1.86-.28.53-.67.97-1.16,1.32-.5.35-1.09.61-1.78.78-.69.17-1.44.25-2.26.25s-1.58-.08-2.32-.25c-.74-.17-1.44-.42-2.1-.75s-1.27-.75-1.85-1.26l.77-1.25c.28.29.61.57,1,.82.39.26.82.49,1.3.69s.99.36,1.54.47,1.12.16,1.7.16c1.24,0,2.21-.23,2.91-.68s1.04-1.12,1.04-2.02c0-.64-.18-1.16-.53-1.55-.35-.39-.88-.71-1.58-.95-.7-.25-1.57-.49-2.59-.72-1.08-.25-2-.53-2.75-.83-.75-.31-1.31-.71-1.68-1.22-.37-.5-.56-1.17-.56-2.01,0-.97.24-1.78.71-2.45s1.13-1.17,1.97-1.51c.83-.34,1.79-.52,2.88-.52.69,0,1.33.07,1.92.21.59.14,1.14.34,1.65.6.5.26.98.59,1.42.99l-.75,1.23Z"/>
          <path class="cls-4" d="m112.07,109.72v-15.59h1.54v15.59h-1.54Zm.09-16.89v-1.7h1.36v1.7h-1.36Z"/>
          <path class="cls-4" d="m159.83,97.05c-.22-.25-.48-.47-.77-.67-.29-.2-.62-.37-.99-.52-.37-.15-.76-.26-1.18-.35s-.86-.13-1.33-.13c-1.36,0-2.36.26-3,.78-.64.52-.96,1.22-.96,2.12,0,.61.15,1.1.45,1.45.3.35.77.64,1.42.86.64.22,1.46.45,2.46.68,1.11.23,2.07.51,2.88.83.8.32,1.43.76,1.87,1.3.44.55.66,1.29.66,2.23,0,.72-.14,1.34-.42,1.86-.28.53-.67.97-1.16,1.32-.5.35-1.09.61-1.78.78-.69.17-1.44.25-2.26.25s-1.58-.08-2.32-.25c-.74-.17-1.44-.42-2.1-.75s-1.27-.75-1.85-1.26l.77-1.25c.28.29.61.57,1,.82.39.26.82.49,1.3.69s.99.36,1.54.47,1.12.16,1.7.16c1.24,0,2.21-.23,2.91-.68s1.04-1.12,1.04-2.02c0-.64-.18-1.16-.53-1.55-.35-.39-.88-.71-1.58-.95-.7-.25-1.57-.49-2.59-.72-1.08-.25-2-.53-2.75-.83-.75-.31-1.31-.71-1.68-1.22-.37-.5-.56-1.17-.56-2.01,0-.97.24-1.78.71-2.45s1.13-1.17,1.97-1.51c.83-.34,1.79-.52,2.88-.52.69,0,1.33.07,1.92.21.59.14,1.14.34,1.65.6.5.26.98.59,1.42.99l-.75,1.23Z"/>
          <path class="cls-4" d="m166.22,109.72v-15.59h1.54v15.59h-1.54Zm.09-16.89v-1.7h1.36v1.7h-1.36Z"/>
        </g>
      </g>
      <g>
        <polygon class="cls-4" points="82.68 86.22 96.77 86.22 96.77 83.58 84.83 83.58 82.68 86.22"/>
        <g>
          <polygon class="cls-4" points="92.54 62.79 78.49 62.79 78.49 65.43 90.42 65.43 92.54 62.79"/>
          <polygon class="cls-4" points="95.46 62.79 93.3 65.43 93.3 65.43 76.34 86.22 79.79 86.22 82.8 82.49 82.8 82.49 98.62 62.79 95.46 62.79"/>
        </g>
        <g>
          <polygon class="cls-4" points="129.04 83.58 129.04 65.43 141.68 65.43 141.68 62.79 126.07 62.79 126.07 86.22 141.98 86.22 141.98 83.58 129.04 83.58"/>
          <rect class="cls-4" x="131.97" y="73.02" width="8.07" height="2.48"/>
        </g>
        <path class="cls-4" d="m46.28,68.58c-.84-1.77-2.1-3.18-3.78-4.22-1.68-1.04-3.78-1.57-6.29-1.57h-7.5s-2.93,0-2.93,0l2.32,2.84v20.6h2.97v-20.79s5.15,0,5.15,0c1.78,0,3.29.39,4.52,1.16,1.23.77,2.17,1.84,2.82,3.2.65,1.36.97,2.93.97,4.69s-.32,3.26-.96,4.64c-.64,1.38-1.57,2.46-2.81,3.27-1.23.8-2.75,1.2-4.55,1.2h-.09l-2.16,2.64h2.24c2.31,0,4.31-.48,6.01-1.45,1.69-.97,3-2.33,3.93-4.09.92-1.76,1.39-3.83,1.39-6.2,0-2.16-.42-4.12-1.25-5.89Z"/>
        <g>
          <path class="cls-4" d="m63.04,86.39c-1.87,0-3.44-.32-4.72-.97-1.28-.65-2.3-1.53-3.07-2.64-.77-1.11-1.33-2.37-1.68-3.78-.35-1.41-.53-2.86-.53-4.36v-11.85h2.97v11.85c0,1.14.12,2.26.35,3.35.23,1.09.61,2.06,1.14,2.92.53.86,1.24,1.54,2.15,2.05.9.51,2.02.76,3.37.76s2.5-.26,3.4-.78c.9-.52,1.62-1.21,2.15-2.08.53-.87.91-1.84,1.14-2.92.23-1.08.35-2.18.35-3.3v-11.85h2.97v11.85c0,1.58-.18,3.09-.54,4.5s-.94,2.67-1.73,3.75c-.79,1.08-1.82,1.93-3.09,2.56-1.26.63-2.8.94-4.6.94Zm-4.89-25.25v-2.73h2.44v2.73h-2.44Zm7.35,0v-2.73h2.44v2.73h-2.44Z"/>
          <path class="cls-4" d="m100.4,74.31c0-1.43.25-2.83.74-4.21.5-1.37,1.22-2.63,2.18-3.76.96-1.13,2.13-2.03,3.51-2.71,1.39-.67,2.96-1.01,4.72-1.01,2.09,0,3.88.48,5.38,1.44,1.5.96,2.61,2.18,3.33,3.68l-2.34,1.52c-.46-.99-1.05-1.78-1.76-2.36-.72-.58-1.49-1-2.31-1.24-.83-.24-1.63-.36-2.43-.36-1.3,0-2.45.26-3.45.79-1,.53-1.84,1.23-2.52,2.11-.68.88-1.19,1.86-1.53,2.95-.34,1.09-.51,2.18-.51,3.28,0,1.21.2,2.38.61,3.5.41,1.12.97,2.11,1.7,2.97.73.86,1.58,1.54,2.57,2.05.99.51,2.07.76,3.23.76.81,0,1.65-.14,2.51-.43.86-.29,1.66-.73,2.41-1.34.75-.6,1.34-1.39,1.78-2.36l2.47,1.35c-.48,1.17-1.23,2.16-2.24,2.97-1.01.81-2.14,1.43-3.38,1.85s-2.47.63-3.68.63c-1.61,0-3.08-.35-4.42-1.04s-2.5-1.62-3.48-2.77c-.98-1.15-1.74-2.45-2.28-3.89-.54-1.44-.81-2.9-.81-4.37Z"/>
        </g>
      </g>
    </g>
  </g>
</svg>